# xmcd CD database file
#
# Track frame offsets:
#	182
#	28897
#	46360
#	67142
#	83510
#	103222
#	120787
#	134077
#
# Disc length: 2040 seconds
#
# Revision: 0
# Processed by: cddbd v1.5.1PL0 Copyright (c) Steve Scherf et al.
# Submitted via: CDex 1.51
#
DISCID=6d07f608
DTITLE=Tito Allen - Untouchable
DYEAR=1979
DGENRE=Salsa
TTITLE0=Vivan Tus Ojos Verdes
TTITLE1=El Deseo De Amar
TTITLE2=Guancona
TTITLE3=Para Los Bravos
TTITLE4=Flores Blancas y Negras
TTITLE5=El Sabio
TTITLE6=Como Tu Ninguna
TTITLE7=Busca Ambiente
EXTD=YEAR: 1979
EXTT0=
EXTT1=
EXTT2=
EXTT3=
EXTT4=
EXTT5=
EXTT6=
EXTT7=
PLAYORDER=
